<?xml version="1.0" encoding="UTF-8" ?>
<!DOCTYPE svg PUBLIC "-//W3C//DTD SVG 1.1//EN" "http://www.w3.org/Graphics/SVG/1.1/DTD/svg11.dtd">
<svg width="1152pt" height="864pt" viewBox="0 0 1152 864" version="1.1" xmlns="http://www.w3.org/2000/svg">
<g id="#000000ff">
<path fill="#000000" opacity="1.00" d=" M 807.59 42.84 C 811.70 41.89 816.79 41.68 819.93 45.04 C 823.10 48.50 823.45 53.56 823.47 58.03 C 822.85 69.34 819.30 80.21 815.67 90.84 C 812.83 99.27 809.19 107.39 805.34 115.39 C 802.69 120.58 800.29 125.99 796.59 130.55 C 794.59 133.16 791.18 134.50 787.96 134.32 C 784.72 133.96 783.08 130.74 782.59 127.87 C 781.04 117.08 783.65 106.32 785.96 95.85 C 787.76 86.28 789.73 76.73 792.59 67.41 C 794.58 60.91 796.92 54.41 800.73 48.72 C 802.45 46.24 804.60 43.75 807.59 42.84 Z" />
<path fill="#000000" opacity="1.00" d=" M 886.76 83.78 C 891.80 78.94 897.10 73.79 904.02 71.88 C 912.68 69.46 921.91 78.19 920.48 86.91 C 919.84 90.61 918.09 94.02 915.84 96.98 C 910.44 104.43 903.17 110.18 896.42 116.33 C 883.92 126.96 871.17 137.38 857.42 146.36 C 853.15 148.83 848.93 151.91 843.87 152.34 C 842.86 148.85 841.44 145.11 842.76 141.50 C 844.82 135.50 848.47 130.24 851.95 125.00 C 862.45 110.38 874.21 96.68 886.76 83.78 Z" />
<path fill="#000000" opacity="1.00" d=" M 939.34 149.27 C 945.19 147.61 952.06 148.02 956.89 152.04 C 959.78 154.45 960.66 158.74 959.16 162.16 C 957.21 166.31 953.48 169.44 949.29 171.19 C 938.90 175.79 927.88 178.83 916.82 181.29 C 910.05 182.34 903.07 184.41 896.25 182.67 C 892.61 181.85 891.81 177.22 893.52 174.35 C 896.77 167.60 904.02 164.46 910.31 161.22 C 919.68 156.55 929.34 152.41 939.34 149.27 Z" />
<path fill="#000000" opacity="1.00" d=" M 434.21 714.41 C 467.39 718.82 499.74 728.04 532.99 731.99 C 553.09 734.33 573.49 733.32 593.50 736.56 C 597.18 737.09 601.12 738.47 602.79 742.12 C 595.19 752.26 581.92 755.26 569.95 756.17 C 555.89 756.93 541.86 754.97 527.99 752.94 C 495.37 747.53 463.70 736.67 434.44 721.32 C 434.35 719.01 434.27 716.71 434.21 714.41 Z" />
<path fill="#000000" opacity="1.00" d=" M 573.07 787.80 C 595.96 787.61 618.12 779.44 641.08 780.46 C 644.88 780.38 649.97 782.41 649.53 786.99 C 648.71 792.66 643.61 796.26 638.99 798.92 C 625.82 805.98 610.67 807.82 595.99 809.05 C 574.31 810.35 552.58 808.45 531.12 805.38 C 518.02 803.24 504.98 800.34 492.62 795.41 C 488.30 793.64 483.24 791.77 481.45 787.01 C 482.47 785.19 483.21 781.96 485.93 782.35 C 514.99 783.91 543.90 788.44 573.07 787.80 Z" />
</g>
<g id="#5aaa1aff">
<path fill="#5aaa1a" opacity="1.00" d=" M 459.89 134.81 C 556.67 130.89 653.94 135.54 749.59 151.11 C 773.60 154.81 797.62 159.72 820.18 168.95 C 836.44 175.34 851.71 184.58 864.09 196.98 C 876.32 208.79 884.60 224.10 890.07 240.07 C 902.41 275.78 906.83 313.58 910.29 351.02 C 913.06 384.60 913.89 418.31 913.62 451.99 C 913.31 475.72 912.59 499.46 910.21 523.08 C 907.51 547.63 902.66 572.91 888.79 593.84 C 880.06 607.26 867.54 617.86 853.63 625.61 C 840.87 632.74 826.93 637.47 812.88 641.31 C 805.65 643.14 798.42 645.27 790.94 645.67 C 783.67 646.28 776.14 646.47 769.35 649.41 C 764.81 651.32 761.22 655.87 761.36 660.93 C 761.41 688.17 765.80 715.14 770.14 741.96 C 771.97 755.11 777.06 767.69 777.60 781.05 C 777.63 784.28 777.24 788.38 774.12 790.17 C 766.77 791.84 759.26 789.34 752.55 786.46 C 742.59 781.66 733.14 775.88 723.62 770.28 C 676.05 740.24 637.42 698.77 593.82 663.66 C 546.54 663.41 499.26 663.41 451.99 663.32 C 447.55 663.39 443.41 661.39 438.98 661.37 C 390.60 659.29 341.87 657.35 294.41 646.97 C 275.83 642.48 257.50 634.82 243.48 621.50 C 230.54 609.58 221.60 593.93 215.73 577.47 C 206.45 551.93 202.10 524.92 198.95 498.03 C 193.40 445.89 193.70 393.30 195.96 340.97 C 197.77 304.82 198.44 268.14 208.06 233.00 C 211.94 219.11 217.54 205.58 225.73 193.65 C 233.27 182.94 243.40 174.00 255.19 168.22 C 272.52 159.68 291.43 155.17 310.19 151.01 C 359.47 140.98 409.76 137.42 459.89 134.81 M 469.64 194.68 C 460.56 201.17 453.63 210.02 446.02 218.06 C 411.17 256.87 383.43 301.28 350.98 342.00 C 348.52 345.35 342.21 343.49 342.91 339.04 C 348.80 302.67 354.97 266.33 360.91 229.96 C 362.07 223.15 360.82 215.29 355.43 210.51 C 350.09 205.98 342.81 204.75 336.02 204.52 C 325.24 204.62 314.49 206.73 304.41 210.53 C 299.26 212.71 293.76 214.75 289.85 218.92 C 286.40 222.46 284.36 227.13 283.24 231.90 C 278.50 251.08 275.82 270.69 273.10 290.24 C 268.61 323.79 264.26 357.37 261.05 391.07 C 257.35 427.29 255.19 463.64 252.64 499.95 C 251.74 516.62 252.48 533.34 252.23 550.03 C 251.91 559.07 252.99 568.17 255.44 576.87 C 257.75 585.34 264.60 592.11 272.70 595.23 C 286.06 600.67 301.22 600.84 315.13 597.49 C 321.06 595.93 327.59 593.24 330.13 587.19 C 333.85 578.22 331.75 568.35 330.73 559.06 C 329.23 549.46 329.74 539.73 329.42 530.06 C 329.17 506.35 328.45 482.52 331.48 458.94 C 331.71 457.05 332.08 454.91 333.72 453.69 C 335.07 453.04 336.65 453.28 338.11 453.09 C 358.01 489.75 377.86 526.49 400.42 561.60 C 409.83 576.10 418.87 590.90 429.59 604.49 C 433.51 609.17 437.44 614.65 443.66 616.28 C 450.04 617.29 456.60 616.61 462.76 614.77 C 473.83 611.96 484.28 607.27 494.71 602.71 C 500.73 599.60 507.89 596.33 510.28 589.44 C 511.89 584.24 508.59 579.35 505.65 575.35 C 498.79 566.29 491.20 557.81 483.74 549.24 C 469.97 532.88 458.88 514.49 447.74 496.30 C 438.40 480.52 429.34 464.56 420.75 448.36 C 412.89 434.35 405.31 420.17 398.24 405.74 C 396.56 401.94 394.57 398.18 393.91 394.04 C 394.21 390.95 396.02 388.28 398.02 386.01 C 442.30 337.37 486.40 288.42 534.63 243.60 C 537.99 240.01 542.58 237.36 544.74 232.80 C 546.63 228.79 543.59 224.82 541.15 221.85 C 534.89 214.83 526.44 210.34 518.43 205.63 C 507.40 199.84 496.08 194.33 484.01 191.09 C 478.92 189.49 473.80 191.90 469.64 194.68 M 647.56 192.86 C 634.16 195.87 621.38 201.12 608.83 206.61 C 601.23 210.30 592.91 213.67 587.56 220.53 C 585.19 223.57 585.50 227.61 586.41 231.13 C 588.52 239.24 587.53 247.68 588.10 255.95 C 588.54 280.96 588.07 305.97 587.00 330.96 C 585.01 373.76 580.48 416.72 569.09 458.15 C 566.15 467.84 562.66 478.03 555.11 485.17 C 549.04 491.05 539.00 491.66 532.09 486.92 C 524.07 481.73 520.44 472.25 517.87 463.47 C 513.74 448.35 512.74 432.58 512.50 416.98 C 512.55 408.94 512.15 400.83 513.60 392.88 C 514.74 384.80 516.93 376.35 514.48 368.30 C 513.13 363.88 508.31 361.68 503.95 362.14 C 493.72 363.20 484.20 367.50 474.98 371.82 C 468.15 375.39 460.92 378.91 455.92 384.98 C 449.61 392.50 446.73 402.26 445.60 411.86 C 443.64 434.29 448.58 456.74 456.17 477.75 C 467.04 505.70 486.04 531.85 513.33 545.56 C 531.38 555.06 552.56 557.76 572.63 554.92 C 587.06 552.63 598.97 542.91 607.71 531.67 C 619.16 516.72 626.31 499.04 632.29 481.33 C 640.31 457.18 645.28 432.15 649.71 407.12 C 656.90 364.90 664.93 322.80 671.07 280.40 C 674.14 257.03 677.26 233.56 677.43 209.95 C 677.31 203.98 677.02 196.30 670.98 193.17 C 663.46 190.42 655.28 191.94 647.56 192.86 M 757.28 219.11 C 751.47 221.40 743.82 223.67 742.71 230.85 C 712.93 318.44 681.19 405.37 652.53 493.35 C 646.58 511.60 639.75 529.60 635.15 548.27 C 633.15 555.79 629.38 564.16 633.35 571.69 C 637.95 579.96 647.54 583.25 656.14 585.62 C 667.03 588.62 678.56 590.35 689.81 588.40 C 693.37 587.72 697.17 586.49 699.39 583.41 C 703.20 578.26 705.04 571.99 706.97 565.97 C 711.41 550.57 714.17 534.76 717.38 519.07 C 719.08 511.18 720.46 503.15 723.38 495.59 C 746.43 488.49 769.45 481.30 792.47 474.12 C 799.40 504.02 799.57 535.02 806.56 564.92 C 808.08 571.64 808.99 579.00 813.53 584.49 C 817.57 589.13 824.39 588.67 829.95 588.07 C 845.84 585.47 860.84 577.61 872.21 566.24 C 877.26 560.87 882.21 553.81 881.10 546.07 C 871.05 501.04 861.66 455.76 856.94 409.81 C 851.30 359.49 848.40 308.80 839.62 258.87 C 837.77 249.00 835.96 239.03 832.51 229.57 C 830.19 223.22 826.38 217.00 820.20 213.83 C 814.89 211.22 808.79 210.82 802.98 210.85 C 787.48 211.65 772.03 214.23 757.28 219.11 Z" />
<path fill="#5aaa1a" opacity="1.00" d=" M 743.15 425.73 C 755.15 386.30 767.59 346.99 779.41 307.51 C 781.53 325.01 782.38 342.66 784.06 360.21 C 785.53 378.48 787.12 396.74 788.51 415.02 C 788.86 417.32 786.11 417.99 784.46 418.60 C 770.96 422.47 756.49 421.14 743.15 425.73 Z" />
</g>
<g id="#ffffffff">
<path fill="#ffffff" opacity="1.00" d=" M 469.64 194.68 C 473.80 191.90 478.92 189.49 484.01 191.09 C 496.08 194.33 507.40 199.84 518.43 205.63 C 526.44 210.34 534.89 214.83 541.15 221.85 C 543.59 224.82 546.63 228.79 544.74 232.80 C 542.58 237.36 537.99 240.01 534.63 243.60 C 486.40 288.42 442.30 337.37 398.02 386.01 C 396.02 388.28 394.21 390.95 393.91 394.04 C 394.57 398.18 396.56 401.94 398.24 405.74 C 405.31 420.17 412.89 434.35 420.75 448.36 C 429.34 464.56 438.40 480.52 447.74 496.30 C 458.88 514.49 469.97 532.88 483.74 549.24 C 491.20 557.81 498.79 566.29 505.65 575.35 C 508.59 579.35 511.89 584.24 510.28 589.44 C 507.89 596.33 500.73 599.60 494.71 602.71 C 484.28 607.27 473.83 611.96 462.76 614.77 C 456.60 616.61 450.04 617.29 443.66 616.28 C 437.44 614.65 433.51 609.17 429.59 604.49 C 418.87 590.90 409.83 576.10 400.42 561.60 C 377.86 526.49 358.01 489.75 338.11 453.09 C 336.65 453.28 335.07 453.04 333.72 453.69 C 332.08 454.91 331.71 457.05 331.48 458.94 C 328.45 482.52 329.17 506.35 329.42 530.06 C 329.74 539.73 329.23 549.46 330.73 559.06 C 331.75 568.35 333.85 578.22 330.13 587.19 C 327.59 593.24 321.06 595.93 315.13 597.49 C 301.22 600.84 286.06 600.67 272.70 595.23 C 264.60 592.11 257.75 585.34 255.44 576.87 C 252.99 568.17 251.91 559.07 252.23 550.03 C 252.48 533.34 251.74 516.62 252.64 499.95 C 255.19 463.64 257.35 427.29 261.05 391.07 C 264.26 357.37 268.61 323.79 273.10 290.24 C 275.82 270.69 278.50 251.08 283.24 231.90 C 284.36 227.13 286.40 222.46 289.85 218.92 C 293.76 214.75 299.26 212.71 304.41 210.53 C 314.49 206.73 325.24 204.62 336.02 204.52 C 342.81 204.75 350.09 205.98 355.43 210.51 C 360.82 215.29 362.07 223.15 360.91 229.96 C 354.97 266.33 348.80 302.67 342.91 339.04 C 342.21 343.49 348.52 345.35 350.98 342.00 C 383.43 301.28 411.17 256.87 446.02 218.06 C 453.63 210.02 460.56 201.17 469.64 194.68 Z" />
<path fill="#ffffff" opacity="1.00" d=" M 647.56 192.86 C 655.28 191.94 663.46 190.42 670.98 193.17 C 677.02 196.30 677.31 203.98 677.43 209.95 C 677.26 233.56 674.14 257.03 671.07 280.40 C 664.93 322.80 656.90 364.90 649.71 407.12 C 645.28 432.15 640.31 457.18 632.29 481.33 C 626.31 499.04 619.16 516.72 607.71 531.67 C 598.97 542.91 587.06 552.63 572.63 554.92 C 552.56 557.76 531.38 555.06 513.33 545.56 C 486.04 531.85 467.04 505.70 456.17 477.75 C 448.58 456.74 443.64 434.29 445.60 411.86 C 446.73 402.26 449.61 392.50 455.92 384.98 C 460.92 378.91 468.15 375.39 474.98 371.82 C 484.20 367.50 493.72 363.20 503.95 362.14 C 508.31 361.68 513.13 363.88 514.48 368.30 C 516.93 376.35 514.74 384.80 513.60 392.88 C 512.15 400.83 512.55 408.94 512.50 416.98 C 512.74 432.58 513.74 448.35 517.87 463.47 C 520.44 472.25 524.07 481.73 532.09 486.92 C 539.00 491.66 549.04 491.05 555.11 485.17 C 562.66 478.03 566.15 467.84 569.09 458.15 C 580.48 416.72 585.01 373.76 587.00 330.96 C 588.07 305.97 588.54 280.96 588.10 255.95 C 587.53 247.68 588.52 239.24 586.41 231.13 C 585.50 227.61 585.19 223.57 587.56 220.53 C 592.91 213.67 601.23 210.30 608.83 206.61 C 621.38 201.12 634.16 195.87 647.56 192.86 Z" />
<path fill="#ffffff" opacity="1.00" d=" M 757.28 219.11 C 772.03 214.23 787.48 211.65 802.98 210.85 C 808.79 210.82 814.89 211.22 820.20 213.83 C 826.38 217.00 830.19 223.22 832.51 229.57 C 835.96 239.03 837.77 249.00 839.62 258.87 C 848.40 308.80 851.30 359.49 856.94 409.81 C 861.66 455.76 871.05 501.04 881.10 546.07 C 882.21 553.81 877.26 560.87 872.21 566.24 C 860.84 577.61 845.84 585.47 829.95 588.07 C 824.39 588.67 817.57 589.13 813.53 584.49 C 808.99 579.00 808.08 571.64 806.56 564.92 C 799.57 535.02 799.40 504.02 792.47 474.12 C 769.45 481.30 746.43 488.49 723.38 495.59 C 720.46 503.15 719.08 511.18 717.38 519.07 C 714.17 534.76 711.41 550.57 706.97 565.97 C 705.04 571.99 703.20 578.26 699.39 583.41 C 697.17 586.49 693.37 587.72 689.81 588.40 C 678.56 590.35 667.03 588.62 656.14 585.62 C 647.54 583.25 637.95 579.96 633.35 571.69 C 629.38 564.16 633.15 555.79 635.15 548.27 C 639.75 529.60 646.58 511.60 652.53 493.35 C 681.19 405.37 712.93 318.44 742.71 230.85 C 743.82 223.67 751.47 221.40 757.28 219.11 M 743.15 425.73 C 756.49 421.14 770.96 422.47 784.46 418.60 C 786.11 417.99 788.86 417.32 788.51 415.02 C 787.12 396.74 785.53 378.48 784.06 360.21 C 782.38 342.66 781.53 325.01 779.41 307.51 C 767.59 346.99 755.15 386.30 743.15 425.73 Z" />
</g>
</svg>
